<svg width="123" height="124" viewBox="0 0 123 124" fill="none" xmlns="http://www.w3.org/2000/svg">
<path fill-rule="evenodd" clip-rule="evenodd" d="M61.5 123.5C95.4655 123.5 123 95.9655 123 62C123 28.0345 95.4655 0.5 61.5 0.5C27.5345 0.5 0 28.0345 0 62C0 95.9655 27.5345 123.5 61.5 123.5Z" fill="#F2F5F7"/>
<mask id="mask0_206_6395" style="mask-type:luminance" maskUnits="userSpaceOnUse" x="0" y="0" width="123" height="124">
<path fill-rule="evenodd" clip-rule="evenodd" d="M61.5 123.5C95.4655 123.5 123 95.9655 123 62C123 28.0345 95.4655 0.5 61.5 0.5C27.5345 0.5 0 28.0345 0 62C0 95.9655 27.5345 123.5 61.5 123.5Z" fill="white"/>
</mask>
<g mask="url(#mask0_206_6395)">
<path fill-rule="evenodd" clip-rule="evenodd" d="M40.7334 48.5843C35.6314 46.9074 31.9477 42.1046 31.9477 36.4415L36.4622 37.1011C35.1235 35.0805 34.3438 32.6572 34.3438 30.0519L40.7334 30.9855V27.6558L76.2696 33.0197C80.1761 33.6094 83.0646 36.9665 83.0646 40.9173V55.0129C85.8205 55.7222 87.8568 58.2239 87.8568 61.2012C87.8568 64.1785 85.8205 66.6802 83.0646 67.3895V69.9869H83.0312C82.6268 77.2353 78.5752 83.51 72.6815 87.0059V90.7532H79.8698C84.071 90.7532 87.5146 93.9968 87.8328 98.1164C95.53 99.2623 101.435 105.899 101.435 113.915V135.48H22.3633V113.915C22.3633 105.621 28.6845 98.8037 36.7722 98.0172C37.1376 93.9449 40.5595 90.7532 44.7269 90.7532H51.1165V87.0059C45.2228 83.51 41.1712 77.2353 40.7667 69.9869H40.7334V67.5908C37.2045 67.5908 34.3438 64.7301 34.3438 61.2012C34.3438 57.6723 37.2045 54.8116 40.7334 54.8116V48.5843Z" fill="#C2D1D9"/>
</g>
</svg>
