<svg width="804" height="566" viewBox="0 0 804 566" fill="none" xmlns="http://www.w3.org/2000/svg">
<path fill-rule="evenodd" clip-rule="evenodd" d="M738.351 0H679.956H639.694H65.5726C47.2583 0 35.3504 0.0817699 25.3893 3.23565C14.3365 7.26409 8.11926 13.4198 4.112 24.4492C0.949097 34.4634 0.631409 46.2255 0.631409 64.5681V501.201C0.631409 519.545 0.950317 531.349 4.09924 541.322C8.11987 552.39 14.4976 558.506 25.5114 562.52C35.5115 565.688 47.2615 565.769 65.5759 565.769C66.0942 566.288 737.479 565.769 737.479 565.769C755.794 565.769 768.271 565.688 778.229 562.534C789.281 558.506 795.195 552.35 799.204 541.32C802.113 532.106 802.099 521.412 802.079 505.472C802.077 504.088 802.075 502.666 802.075 501.201V64.5681C802.075 63.0987 802.077 61.6713 802.079 60.2834C802.099 44.3467 802.113 33.6234 799.217 24.4472C795.195 13.3789 789.427 7.26409 778.413 3.24907C768.416 0.0817696 756.666 0 738.351 0Z" fill="#F2F5F7"/>
<path d="M30.1927 8.28757L30.0223 7.81751L30.0323 7.81387L30.0425 7.81066L30.1927 8.28757ZM9.18713 29.118L8.71057 28.9667L8.71381 28.9565L8.71747 28.9464L9.18713 29.118ZM9.1745 536.657L8.70483 536.828L8.70117 536.818L8.69794 536.808L9.1745 536.657ZM30.3132 557.472L30.163 557.949L30.1528 557.946L30.1428 557.942L30.3132 557.472ZM69.8662 560.663V560.163H70.0726L70.2189 560.308L69.8662 560.663ZM733.19 560.663L733.19 560.163H733.19V560.663ZM773.42 557.486L773.591 557.956L773.581 557.959L773.571 557.962L773.42 557.486ZM794.128 536.654L794.604 536.806L794.601 536.816L794.597 536.826L794.128 536.654ZM796.965 501.454L797.465 501.453L796.965 501.454ZM796.965 64.3051L797.465 64.3058L796.965 64.3051ZM794.14 29.1161L794.61 28.9445L794.613 28.9546L794.617 28.9649L794.14 29.1161ZM773.602 8.30075L773.752 7.82386L773.763 7.82706L773.773 7.83069L773.602 8.30075ZM676.402 4.61035H734.051V5.61035H676.402V4.61035ZM636.655 4.61035H676.402V5.61035H636.655V4.61035ZM69.863 4.61035H636.655V5.61035H69.863V4.61035ZM30.0425 7.81066C39.9658 4.68561 51.8091 4.61035 69.863 4.61035V5.61035C51.7558 5.61035 40.0876 5.69567 30.3429 8.76448L30.0425 7.81066ZM8.71747 28.9464C10.7144 23.4798 13.2726 19.1925 16.7298 15.7696C20.1866 12.3469 24.5171 9.81326 30.0223 7.81751L30.3631 8.75764C24.9567 10.7176 20.7624 13.184 17.4333 16.4802C14.1047 19.7759 11.616 23.926 9.6568 29.2895L8.71747 28.9464ZM5.25098 68.5124C5.25098 50.5178 5.56036 38.8872 8.71057 28.9667L9.6637 29.2693C6.56879 39.0156 6.25098 50.4843 6.25098 68.5124H5.25098ZM5.25098 497.261V68.5124H6.25098V497.261H5.25098ZM8.69794 536.808C5.56158 526.928 5.25098 515.256 5.25098 497.261H6.25098C6.25098 515.29 6.57001 526.8 9.65106 536.506L8.69794 536.808ZM30.1428 557.942C24.6582 555.954 20.2985 553.434 16.8054 550.02C13.3115 546.604 10.7092 542.317 8.70483 536.828L9.64417 536.485C11.6091 541.866 14.1396 546.015 17.5045 549.305C20.8701 552.595 25.0951 555.049 30.4836 557.002L30.1428 557.942ZM69.8662 561.163C51.8118 561.163 40.1246 561.087 30.163 557.949L30.4634 556.995C40.2468 560.077 51.7596 560.163 69.8662 560.163V561.163ZM733.19 560.663C733.191 561.163 733.188 561.163 733.183 561.163C733.178 561.163 733.171 561.163 733.161 561.163C733.14 561.163 733.11 561.163 733.07 561.163C732.99 561.163 732.87 561.163 732.71 561.163C732.392 561.163 731.916 561.164 731.289 561.164C730.035 561.165 728.174 561.167 725.747 561.168C720.892 561.172 713.772 561.177 704.71 561.184C686.585 561.197 660.692 561.215 629.618 561.234C567.472 561.274 484.604 561.322 401.72 561.354C318.837 561.386 235.937 561.402 173.726 561.378C142.621 561.366 116.688 561.344 98.5143 561.309C89.4279 561.292 82.2809 561.271 77.3975 561.247C74.9559 561.235 73.0792 561.222 71.8086 561.208C71.1735 561.201 70.6882 561.193 70.3588 561.186C70.1946 561.182 70.066 561.178 69.976 561.174C69.9319 561.172 69.8913 561.17 69.8584 561.167C69.8408 561.165 69.814 561.162 69.7961 561.159C69.7626 561.153 69.6151 561.096 69.5135 561.017L70.2189 560.308C70.1193 560.232 69.9788 560.177 69.9574 560.172C69.9517 560.172 69.942 560.17 69.9465 560.171C69.9579 560.172 69.9816 560.173 70.0217 560.175C70.1 560.179 70.2195 560.182 70.3817 560.186C70.705 560.193 71.1855 560.201 71.8196 560.208C73.0871 560.222 74.9614 560.235 77.4025 560.247C82.2844 560.271 89.4301 560.292 98.5163 560.309C116.689 560.344 142.621 560.366 173.727 560.378C235.937 560.402 318.836 560.386 401.72 560.354C484.603 560.322 567.471 560.274 629.618 560.234C660.691 560.215 686.584 560.197 704.709 560.184C713.771 560.177 720.892 560.172 725.746 560.168C728.174 560.167 730.035 560.165 731.289 560.164C731.916 560.164 732.391 560.163 732.71 560.163C732.869 560.163 732.989 560.163 733.069 560.163C733.109 560.163 733.14 560.163 733.16 560.163C733.17 560.163 733.177 560.163 733.182 560.163C733.188 560.163 733.19 560.163 733.19 560.663ZM773.571 557.962C763.65 561.088 751.244 561.163 733.19 561.163V560.163C751.3 560.163 763.528 560.077 773.27 557.009L773.571 557.962ZM794.597 536.826C792.601 542.289 790.119 546.576 786.737 550C783.354 553.425 779.098 555.959 773.591 557.956L773.25 557.015C778.654 555.057 782.772 552.591 786.026 549.297C789.28 546.002 791.696 541.852 793.658 536.483L794.597 536.826ZM797.465 501.453C797.486 517.077 797.505 527.668 794.604 536.806L793.651 536.503C796.494 527.547 796.486 517.135 796.465 501.454L797.465 501.453ZM797.462 497.261C797.462 498.698 797.464 500.095 797.465 501.453L796.465 501.454C796.464 500.096 796.462 498.699 796.462 497.261H797.462ZM797.462 68.5124V497.261H796.462V68.5124H797.462ZM797.465 64.3058C797.464 65.6686 797.462 67.07 797.462 68.5124H796.462C796.462 67.0692 796.464 65.6672 796.465 64.3045L797.465 64.3058ZM794.617 28.9649C797.505 38.0659 797.486 48.6852 797.465 64.3058L796.465 64.3045C796.486 48.6272 796.494 38.1872 793.664 29.2674L794.617 28.9649ZM773.773 7.83069C779.261 9.82074 783.473 12.3428 786.817 15.7616C790.16 19.1792 792.608 23.4657 794.61 28.9445L793.671 29.2877C791.702 23.898 789.317 19.7481 786.102 16.4608C782.888 13.1747 778.816 10.7233 773.432 8.7708L773.773 7.83069ZM734.051 4.61035C752.107 4.61035 763.793 4.68566 773.752 7.82386L773.452 8.77763C763.671 5.69563 752.159 5.61035 734.051 5.61035V4.61035Z" fill="#424B5A"/>
<path fill-rule="evenodd" clip-rule="evenodd" d="M65.5727 1.91648C47.4552 1.91648 35.8054 1.99889 26.1664 5.04992C15.6856 8.87074 9.72723 14.5678 5.92773 25.0247C2.86639 34.7183 2.54877 46.4222 2.54877 64.5681V501.201C2.54877 519.348 2.86639 531.011 5.91431 540.665C9.72723 551.161 15.5272 557.014 25.9683 560.822C35.6464 563.885 47.4552 564.083 65.333 564.083H738.112C756.468 564.083 768.119 563.885 777.757 560.834C788.236 557.015 793.587 551.26 797.389 540.803C800.448 531.11 800.158 519.348 800.158 501.201V64.5681C800.158 46.4222 800.448 34.7592 797.402 25.1052C793.587 14.6093 788.091 8.87074 777.651 5.06334C767.974 1.99889 756.468 1.91648 738.351 1.91648H65.5727ZM679.956 0H738.351C756.666 0 768.416 0.0817696 778.413 3.24907C789.427 7.26409 795.195 13.3789 799.217 24.4472C802.366 34.4225 802.075 46.2261 802.075 64.5681V501.201C802.075 519.545 802.366 531.307 799.204 541.32C795.195 552.35 789.281 558.506 778.229 562.534C768.271 565.688 755.794 565.769 737.479 565.769C737.479 565.769 66.0942 566.288 65.5759 565.769C47.2615 565.769 35.5115 565.688 25.5114 562.52C14.4976 558.506 8.11987 552.39 4.09924 541.322C0.950317 531.349 0.631409 519.545 0.631409 501.201V64.5681C0.631409 46.2255 0.949097 34.4634 4.112 24.4492C8.11926 13.4198 14.3365 7.26409 25.3893 3.23565C35.3504 0.0817699 47.2583 0 65.5726 0H639.694H679.956Z" fill="#424B5A"/>
<path fill-rule="evenodd" clip-rule="evenodd" d="M58.7969 283.639C58.7969 295.634 49.0677 305.359 37.0671 305.359C25.0666 305.359 15.3374 295.634 15.3374 283.639C15.3374 271.643 25.0666 261.919 37.0671 261.919C49.0677 261.919 58.7969 271.643 58.7969 283.639ZM56.8795 283.639C56.8795 272.72 47.9921 263.835 37.0671 263.835C26.1422 263.835 17.2548 272.72 17.2548 283.639C17.2548 294.559 26.1422 303.443 37.0671 303.443C47.9921 303.443 56.8795 294.559 56.8795 283.639Z" fill="#424B5A"/>
<path fill-rule="evenodd" clip-rule="evenodd" d="M766.292 261.919C768.763 261.919 770.766 263.921 770.766 266.391C770.766 268.86 768.763 270.863 766.292 270.863C763.821 270.863 761.818 268.86 761.818 266.391C761.818 263.921 763.821 261.919 766.292 261.919Z" fill="#424B5A"/>
<path fill-rule="evenodd" clip-rule="evenodd" d="M766.291 274.057C767.703 274.057 768.848 275.201 768.848 276.612C768.848 278.023 767.703 279.167 766.291 279.167C764.879 279.167 763.735 278.023 763.735 276.612C763.735 275.201 764.879 274.057 766.291 274.057Z" fill="#424B5A"/>
<path fill-rule="evenodd" clip-rule="evenodd" d="M728.578 529.587H72.8516V37.6904H728.578V529.587Z" fill="white"/>
<path fill-rule="evenodd" clip-rule="evenodd" d="M72.2179 37.0518H73.4962H727.944H729.223V38.3294V528.948V530.226H727.944H73.4962H72.2179V528.948V38.3294V37.0518ZM727.944 528.948H73.4962V38.3294H727.944V528.948Z" fill="#424B5A"/>
<rect width="43.4594" height="35.7743" rx="4" transform="matrix(-1 0 0 1 422.449 265.752)" fill="white"/>
<path fill-rule="evenodd" clip-rule="evenodd" d="M381.546 265.752H419.893C421.305 265.752 422.449 266.896 422.449 268.307V298.971C422.449 300.382 421.305 301.526 419.893 301.526H381.546C380.134 301.526 378.99 300.382 378.99 298.971V268.307C378.99 266.896 380.134 265.752 381.546 265.752ZM419.893 298.971V268.307H381.546V298.971H419.893Z" fill="#C2D1D9"/>
<path fill-rule="evenodd" clip-rule="evenodd" d="M415.418 276.292C415.418 278.938 413.272 281.083 410.625 281.083C407.977 281.083 405.831 278.938 405.831 276.292C405.831 273.646 407.977 271.501 410.625 271.501C413.272 271.501 415.418 273.646 415.418 276.292ZM408.388 276.292C408.388 277.527 409.389 278.528 410.625 278.528C411.86 278.528 412.862 277.527 412.862 276.292C412.862 275.057 411.86 274.056 410.625 274.056C409.389 274.056 408.388 275.057 408.388 276.292Z" fill="#C2D1D9"/>
<path d="M413.24 296.045C413.741 296.542 414.55 296.538 415.047 296.037C415.544 295.536 415.541 294.727 415.04 294.23L404.527 283.812L398.601 288.964C398.069 289.427 398.012 290.234 398.476 290.767C398.939 291.299 399.746 291.355 400.279 290.892L404.413 287.298L413.24 296.045Z" fill="#C2D1D9"/>
<path d="M403.65 296.041C404.149 296.54 404.958 296.54 405.458 296.041C405.957 295.542 405.957 294.733 405.458 294.234L388.635 277.417L379.425 285.495C378.894 285.96 378.841 286.767 379.307 287.298C379.772 287.828 380.58 287.881 381.111 287.415L388.52 280.917L403.65 296.041Z" fill="#C2D1D9"/>
<rect width="3.19555" height="32.5801" transform="matrix(-1 0 0 1 804 42.8018)" fill="#424B5A"/>
</svg>
