<svg version="1.2" xmlns="http://www.w3.org/2000/svg" viewBox="0 0 278 156" width="278" height="156">
	<title>logo_uni</title>
	<style>
		.s0 { fill: #ffffff } 
		.s1 { fill: #26547b } 
	</style>
	<path fill-rule="evenodd" class="s0" d="m10-42h258c5.5 0 10 4.5 10 10v219c0 5.5-4.5 10-10 10h-258c-5.5 0-10-4.5-10-10v-219c0-5.5 4.5-10 10-10z"/>
	<path class="s1" d="m243 58.3h-9.4v38.4h9.4z"/>
	<path class="s1" d="m181.9 96.7v-20.4c0-10.7 8.8-19.5 19.5-19.5 10.8 0 19.5 8.7 19.5 19.5v20.3h-9.3v-20.3c0-5.6-4.6-10.1-10.2-10.1-5.5 0-10.1 4.5-10.1 10.1v20.3h-9.4z"/>
	<path class="s1" d="m151.5 97.6c-10.8 0-19.5-8.8-19.5-19.5v-19.8h9.3v19.8c0.1 5.5 4.6 10.1 10.2 10.1 5.6 0 10.1-4.6 10.1-10.2v-19.7h9.4v19.7c0 10.8-8.8 19.6-19.5 19.6z"/>
	<path class="s1" d="m69.6 61.5l-31.1 29.2c-0.5 0.6-0.7 1.4-0.4 2.2 0.3 0.8 1 1.3 1.9 1.4l42.2-0.1c-0.3-6-1.5-12.1-3.8-17.9-2.2-5.4-5.1-10.4-8.8-14.8z"/>
	<path class="s1" d="m81.2 75.2c2.4 6.3 3.8 12.7 4 19h27c4.4-9.6 5-21 0.8-31.6-4-10.2-11.8-17.9-21.1-22.1l-20.1 18.9c3.9 4.6 7.1 9.9 9.4 15.8z"/>
	<path class="s1" d="m67.6 59.2c-2.9-3.1-6.1-5.9-9.7-8.3q-4-2.6-8.3-4.5c-10.9 9-16.3 23.3-14.1 37.4l0.5 2.5q0.2 1.1 0.5 2.1z"/>
	<path class="s1" d="m85.2 97.3c-0.1 7-1.4 13.8-3.9 20.3 3-0.5 6-1.3 9-2.5 9-3.5 16-10 20.4-17.9l-25.5 0.1z"/>
	<path class="s1" d="m69.8 57.1l19-17.8c-8.9-3.1-18.8-3.2-28.3 0.6-2.9 1.1-5.7 2.6-8.2 4.4 6.5 3.1 12.5 7.4 17.5 12.8z"/>
	<path class="s1" d="m77.9 117.9c2.8-6.6 4.2-13.6 4.3-20.6h-42c7.6 13.7 22.4 21.5 37.7 20.6z"/>
</svg>