<svg width="427" height="426" viewBox="0 0 427 426" fill="none" xmlns="http://www.w3.org/2000/svg">
<path d="M213.461 422.78C329.353 422.78 423.301 328.831 423.301 212.94C423.301 97.0486 329.353 3.10004 213.461 3.10004C97.5697 3.10004 3.62109 97.0486 3.62109 212.94C3.62109 328.831 97.5697 422.78 213.461 422.78Z" fill="#364093"/>
<path d="M423.302 212.94H420.352C420.352 270.08 397.202 321.78 359.752 359.23C322.302 396.67 270.602 419.83 213.462 419.83C156.322 419.83 104.622 396.68 67.1719 359.23C29.7319 321.78 6.57188 270.08 6.57188 212.94C6.57188 155.8 29.7219 104.1 67.1719 66.65C104.622 29.21 156.322 6.05002 213.462 6.05002C270.602 6.05002 322.302 29.2 359.752 66.65C397.192 104.1 420.352 155.8 420.352 212.94H423.302H426.252C426.252 95.42 330.982 0.150024 213.462 0.150024C95.9419 0.150024 0.671875 95.42 0.671875 212.94C0.671875 330.46 95.9419 425.73 213.462 425.73C330.982 425.73 426.252 330.46 426.252 212.94H423.302Z" fill="black"/>
<path d="M216.412 422.77V3.12004C216.412 1.49004 215.092 0.170044 213.462 0.170044C211.832 0.170044 210.512 1.49004 210.512 3.12004V422.77C210.512 424.4 211.832 425.72 213.462 425.72C215.082 425.72 216.412 424.4 216.412 422.77Z" fill="black"/>
<path d="M146.482 410.82V15.06C146.482 13.43 145.162 12.11 143.532 12.11C141.902 12.11 140.582 13.43 140.582 15.06V410.82C140.582 412.45 141.902 413.77 143.532 413.77C145.162 413.77 146.482 412.45 146.482 410.82Z" fill="black"/>
<path d="M286.361 410.79V15.09C286.361 13.46 285.041 12.14 283.411 12.14C281.781 12.14 280.461 13.46 280.461 15.09V410.79C280.461 412.42 281.781 413.74 283.411 413.74C285.041 413.74 286.361 412.42 286.361 410.79Z" fill="black"/>
<path d="M356.322 369.3V56.59C356.322 54.96 355.002 53.64 353.372 53.64C351.742 53.64 350.422 54.96 350.422 56.59V369.3C350.422 370.93 351.742 372.25 353.372 372.25C355.002 372.25 356.322 370.93 356.322 369.3Z" fill="black"/>
<path d="M73.5703 56.56C93.7403 38.48 117.45 24.27 143.53 15.06V410.82C117.46 401.62 93.7503 387.4 73.5703 369.32V56.56Z" fill="white"/>
<path d="M73.5711 56.56L75.5411 58.76C95.4311 40.93 118.811 26.92 144.511 17.85L143.531 15.07H140.581V410.83H143.531L144.511 408.05C118.811 398.98 95.4311 384.96 75.5411 367.14L73.5711 369.34H76.5211V56.56H73.5711H70.6211V369.33C70.6211 370.17 70.9711 370.96 71.6011 371.53C92.0611 389.86 116.101 404.28 142.541 413.61C143.441 413.93 144.441 413.79 145.221 413.24C146.001 412.69 146.471 411.79 146.471 410.83V15.06C146.471 14.1 146.001 13.2 145.221 12.65C144.441 12.1 143.441 11.96 142.541 12.28C116.101 21.61 92.0511 36.03 71.6011 54.36C70.9711 54.92 70.6211 55.71 70.6211 56.56H73.5711Z" fill="black"/>
<path d="M213.461 3.12C238.001 3.12 261.531 7.34 283.421 15.09V410.79C261.541 418.55 238.001 422.76 213.461 422.76V3.12Z" fill="white"/>
<path d="M213.462 3.12004V6.07005C237.662 6.07005 260.862 10.23 282.432 17.87L283.422 15.09H280.472V410.79H283.422L282.432 408.01C260.862 415.66 237.662 419.81 213.462 419.81V422.76H216.412V3.12004H213.462H210.512V422.77C210.512 423.55 210.822 424.31 211.372 424.86C211.922 425.41 212.682 425.72 213.462 425.72C238.342 425.72 262.212 421.44 284.402 413.58C285.582 413.16 286.362 412.05 286.362 410.8V15.09C286.362 13.84 285.572 12.73 284.402 12.31C262.212 4.44005 238.332 0.170044 213.462 0.170044C212.682 0.170044 211.922 0.480045 211.372 1.03004C210.822 1.58004 210.512 2.34004 210.512 3.12004H213.462Z" fill="black"/>
<path d="M423.301 212.96C423.301 275.07 396.311 330.9 353.371 369.3V56.59C396.311 94.99 423.301 150.82 423.301 212.96Z" fill="white"/>
<path d="M423.304 212.96H420.354C420.354 274.21 393.754 329.23 351.414 367.1L353.384 369.3H356.334V56.59H353.384L351.414 58.79C393.754 96.66 420.354 151.68 420.354 212.96H423.304H426.254C426.254 149.96 398.884 93.32 355.344 54.39C354.474 53.61 353.234 53.42 352.174 53.9C351.114 54.38 350.434 55.43 350.434 56.59V369.3C350.434 370.47 351.114 371.52 352.174 371.99C353.234 372.47 354.474 372.27 355.344 371.5C398.884 332.57 426.254 275.94 426.254 212.96H423.304Z" fill="black"/>
<path d="M420.421 247.77C403.281 345.97 318.341 422.78 214.801 422.78C113.911 422.78 29.6513 351.91 9.53125 257.43C9.53125 257.43 45.6612 210.08 89.4012 194.87C97.8112 191.93 106.451 190.2 115.211 190.2C129.341 190.2 143.821 195.4 158.421 203.65C185.491 218.95 212.921 244.69 239.111 266.98V267.01C262.591 286.97 285.091 304.18 305.501 308.49C308.741 309.22 311.961 309.58 315.091 309.58C340.221 309.58 366.411 295.14 386.521 280.43C406.621 265.74 419.571 248.68 420.421 247.77Z" fill="#FFED00"/>
<path d="M420.421 247.77L417.511 247.26C409.061 295.67 383.891 338.83 348.081 369.87C312.261 400.91 265.831 419.83 214.791 419.83C115.311 419.84 32.2307 349.94 12.4107 256.82L9.5307 257.43L11.8707 259.22C11.8707 259.22 11.9907 259.06 12.2607 258.72C14.2607 256.18 23.7807 244.34 37.8307 231.43C51.8707 218.51 70.4707 204.56 90.3607 197.66C98.5207 194.81 106.831 193.16 115.201 193.16C128.591 193.15 142.611 198.11 156.961 206.22C183.571 221.23 210.941 246.87 237.191 269.22L239.101 266.97H236.151V267C236.151 267.86 236.531 268.69 237.191 269.25C248.971 279.26 260.541 288.62 271.821 296.07C283.111 303.52 294.111 309.08 304.881 311.37L305.491 308.48L304.841 311.36C308.291 312.14 311.731 312.52 315.081 312.52C341.351 312.47 367.881 297.65 388.251 282.8C398.501 275.32 406.891 267.26 412.841 260.95C415.811 257.79 418.181 255.07 419.851 253.08C420.691 252.09 421.351 251.27 421.831 250.68C422.071 250.39 422.261 250.15 422.401 249.98L422.561 249.79L422.591 249.75L421.891 249.14L422.571 249.78L422.591 249.75L421.891 249.14L422.571 249.78L420.421 247.77L418.271 245.75L417.841 246.25C416.721 247.62 413.121 252.14 407.431 258.08C401.751 264.01 394.011 271.3 384.771 278.05C364.911 292.62 339.061 306.69 315.081 306.64C312.181 306.64 309.181 306.31 306.151 305.63L306.111 305.62C296.471 303.59 286.021 298.4 275.081 291.17C264.141 283.95 252.721 274.73 241.021 264.77L239.111 267.02H242.061V266.99C242.061 266.13 241.681 265.3 241.021 264.74C214.891 242.52 187.411 216.67 159.871 201.09C145.011 192.7 130.081 187.27 115.211 187.26C106.061 187.26 97.0907 189.07 88.4307 192.09C65.9107 199.94 45.7207 215.82 31.0407 229.72C16.3707 243.62 7.26071 255.57 7.19071 255.65C6.67071 256.34 6.47071 257.21 6.65071 258.05C27.0507 353.88 112.501 425.73 214.801 425.73C267.311 425.73 315.131 406.24 351.951 374.33C388.771 342.41 414.641 298.06 423.331 248.27C423.551 246.99 422.911 245.71 421.741 245.12C420.581 244.54 419.161 244.79 418.271 245.74L420.421 247.77Z" fill="black"/>
</svg>
