<svg width="83" height="83" viewBox="0 0 83 83" fill="none" xmlns="http://www.w3.org/2000/svg">
<path fill-rule="evenodd" clip-rule="evenodd" d="M41.5 83C64.4198 83 83 64.4198 83 41.5C83 18.5802 64.4198 0 41.5 0C18.5802 0 0 18.5802 0 41.5C0 64.4198 18.5802 83 41.5 83Z" fill="white"/>
<rect x="21" y="25" width="41.5" height="32.9559" rx="4" fill="white"/>
<path fill-rule="evenodd" clip-rule="evenodd" d="M60.0588 25H23.4412C22.093 25 21 26.0539 21 27.354V55.6019C21 56.902 22.093 57.9559 23.4412 57.9559H60.0588C61.407 57.9559 62.5 56.902 62.5 55.6019V27.354C62.5 26.0539 61.407 25 60.0588 25ZM23.4412 55.6019V27.354H60.0588V55.6019H23.4412Z" fill="#C2D1D9"/>
<path fill-rule="evenodd" clip-rule="evenodd" d="M27.7134 34.7101C27.7134 37.1478 29.7627 39.1239 32.2906 39.1239C34.8185 39.1239 36.8678 37.1478 36.8678 34.7101C36.8678 32.2725 34.8185 30.2964 32.2906 30.2964C29.7627 30.2964 27.7134 32.2725 27.7134 34.7101ZM34.4266 34.7101C34.4266 35.8477 33.4703 36.7699 32.2906 36.7699C31.1109 36.7699 30.1546 35.8477 30.1546 34.7101C30.1546 33.5726 31.1109 32.6504 32.2906 32.6504C33.4703 32.6504 34.4266 33.5726 34.4266 34.7101Z" fill="#C2D1D9"/>
<path d="M29.7933 52.9067C29.3146 53.3644 28.5418 53.3612 28.0672 52.8995C27.5926 52.4379 27.5959 51.6927 28.0746 51.235L38.1136 41.6379L43.7718 46.3837C44.2804 46.8103 44.3341 47.5537 43.8917 48.0442C43.4493 48.5347 42.6783 48.5864 42.1697 48.1598L38.2222 44.8489L29.7933 52.9067Z" fill="#C2D1D9"/>
<path d="M38.9514 52.9032C38.4747 53.3629 37.7019 53.3629 37.2252 52.9033C36.7485 52.4437 36.7485 51.6985 37.2251 51.2388L53.2897 35.7466L62.0845 43.1878C62.5912 43.6165 62.6415 44.3602 62.1969 44.8488C61.7523 45.3374 60.9811 45.3859 60.4744 44.9572L53.3988 38.9706L38.9514 52.9032Z" fill="#C2D1D9"/>
</svg>
