<?xml version="1.0" standalone="no"?>
<!DOCTYPE svg PUBLIC "-//W3C//DTD SVG 20010904//EN"
 "http://www.w3.org/TR/2001/REC-SVG-20010904/DTD/svg10.dtd">
<svg version="1.0" xmlns="http://www.w3.org/2000/svg"
 width="854.000000pt" height="854.000000pt" viewBox="0 0 854.000000 854.000000"
 preserveAspectRatio="xMidYMid meet">
<metadata>
Created by potrace 1.14, written by Peter Selinger 2001-2017
</metadata>
<g transform="translate(0.000000,854.000000) scale(0.100000,-0.100000)"
fill="#000000" stroke="none">
<path d="M4088 8525 c-2 -1 -50 -6 -108 -9 -142 -9 -221 -17 -305 -30 -11 -2
-40 -7 -65 -10 -79 -12 -103 -17 -180 -32 -91 -19 -94 -20 -215 -49 -38 -9
-77 -19 -85 -22 -8 -3 -22 -7 -30 -9 -19 -3 -118 -34 -145 -45 -17 -7 -151
-51 -165 -54 -3 -1 -14 -5 -25 -10 -11 -4 -47 -19 -80 -32 -115 -46 -161 -66
-295 -133 -147 -73 -254 -131 -258 -142 -2 -4 -8 -8 -14 -8 -12 0 -139 -78
-209 -127 -26 -18 -49 -33 -53 -33 -3 0 -15 -8 -25 -17 -33 -30 -50 -43 -56
-43 -6 0 -214 -162 -269 -210 -186 -160 -441 -425 -566 -588 -14 -18 -34 -44
-45 -56 -36 -43 -136 -185 -135 -192 1 -4 -3 -10 -8 -13 -11 -7 -100 -142
-150 -229 -72 -125 -143 -260 -140 -266 2 -2 -5 -12 -14 -22 -9 -11 -18 -23
-19 -29 -1 -5 -15 -39 -31 -75 -17 -36 -45 -103 -64 -150 -19 -47 -39 -94 -44
-105 -28 -61 -140 -421 -144 -465 -1 -9 -5 -20 -8 -25 -5 -9 -12 -39 -22 -95
-2 -14 -9 -45 -15 -70 -15 -67 -22 -105 -37 -205 -2 -16 -6 -41 -9 -55 -8 -45
-22 -175 -31 -295 -13 -170 -5 -687 11 -745 2 -8 7 -40 10 -70 2 -30 10 -82
16 -115 5 -33 12 -73 13 -90 2 -16 7 -48 12 -70 4 -22 9 -42 9 -45 1 -3 5 -25
10 -50 5 -25 9 -47 10 -50 8 -28 16 -60 20 -85 7 -36 13 -59 15 -62 2 -2 4 -7
5 -13 1 -5 3 -11 5 -12 2 -4 7 -23 15 -61 3 -16 24 -83 47 -150 22 -67 41
-128 41 -134 0 -7 4 -13 9 -13 4 0 7 -3 6 -7 -2 -5 7 -33 19 -63 31 -77 46
-114 48 -120 21 -62 216 -451 235 -470 5 -5 11 -16 52 -89 28 -50 175 -269
215 -320 7 -9 42 -54 78 -101 61 -78 114 -142 188 -224 109 -121 310 -314 427
-411 25 -20 63 -52 85 -70 22 -18 81 -62 130 -98 50 -37 95 -71 102 -77 7 -5
14 -10 16 -10 2 0 45 -27 96 -60 50 -33 108 -70 129 -81 20 -11 60 -34 87 -50
69 -40 383 -194 450 -219 11 -5 37 -16 58 -25 70 -30 367 -130 422 -141 11 -2
42 -10 69 -18 27 -8 53 -13 58 -10 4 3 8 0 8 -7 0 -7 3 -10 6 -7 3 4 20 2 37
-3 48 -14 178 -41 212 -44 17 -1 30 -4 30 -5 0 -2 22 -6 77 -15 24 -3 57 -8
73 -11 17 -2 55 -6 85 -9 30 -2 55 -5 55 -6 0 -2 47 -7 140 -14 87 -7 555 -8
620 -1 22 2 72 7 110 10 39 3 86 8 105 11 83 11 116 15 136 19 30 6 94 17 124
21 45 7 145 29 235 51 11 3 31 7 44 10 13 3 32 9 43 15 10 5 18 7 18 5 0 -3
12 -1 28 5 15 6 36 13 47 15 28 5 186 58 265 88 36 13 88 33 115 44 124 47
435 197 447 216 4 6 8 7 8 3 0 -5 13 1 29 12 16 12 32 21 35 21 6 0 279 170
286 179 11 13 70 51 80 51 5 0 10 3 10 8 0 4 17 18 38 32 20 14 51 37 67 52
17 16 34 28 39 28 5 0 18 10 30 23 11 12 31 29 42 37 89 62 327 288 456 432
34 39 68 76 73 82 64 69 265 332 265 346 0 6 4 10 8 10 5 0 15 12 23 28 8 15
22 36 32 46 9 11 17 26 17 33 0 7 3 13 8 13 4 0 22 26 40 58 18 31 42 73 54
92 91 152 210 393 278 564 43 108 100 266 106 293 2 12 9 35 15 50 6 16 12 35
14 43 2 8 13 51 25 95 12 44 24 86 25 95 2 8 4 15 5 15 1 0 4 14 6 30 3 17 11
55 19 85 8 30 16 73 20 95 3 23 7 50 9 62 13 66 20 113 31 213 4 36 9 79 11
95 16 135 21 573 9 725 -14 172 -23 254 -39 340 -3 14 -7 43 -10 65 -7 53 -13
86 -32 170 -9 39 -18 81 -20 95 -4 20 -41 151 -99 350 -22 78 -132 359 -147
378 -6 6 -8 12 -5 12 14 0 -179 368 -266 508 -29 45 -56 90 -62 100 -31 55
-199 282 -278 377 -224 266 -434 470 -687 663 -58 44 -117 90 -132 101 -14 12
-31 21 -37 21 -6 0 -11 4 -11 8 0 5 -16 17 -35 28 -19 10 -35 21 -35 25 0 4
-8 9 -17 13 -10 3 -56 31 -103 61 -47 30 -101 63 -120 74 -106 57 -352 180
-397 199 -76 32 -107 45 -113 47 -3 1 -16 6 -30 13 -28 12 -189 73 -205 76 -5
2 -17 6 -25 9 -25 11 -328 96 -362 102 -17 3 -34 8 -37 10 -4 2 -26 6 -51 10
-25 4 -48 8 -51 11 -4 2 -22 6 -40 9 -19 2 -45 6 -59 9 -52 9 -167 26 -205 31
-22 2 -65 6 -95 10 -30 3 -77 8 -105 11 -52 6 -511 14 -517 9z"/>
</g>
</svg>
